<?xml version="1.0" encoding="UTF-8"?> <svg xmlns="http://www.w3.org/2000/svg" width="610" height="337" viewBox="0 0 610 337" fill="none"><path d="M550.265 211.64H530.86V85.099H550.265V169.327L583.47 134.906H608.332L570.733 172.512L610 211.634H585.138L550.265 175.544V211.634V211.64Z" fill="#FF0000"></path><path d="M483.663 213.456C475.473 213.456 468.047 211.74 461.373 208.303C454.699 204.765 449.447 199.965 445.605 193.895C441.862 187.731 439.994 180.856 439.994 173.27C439.994 165.683 441.862 158.862 445.605 152.798C449.447 146.634 454.699 141.827 461.373 138.39C468.047 134.853 475.473 133.084 483.663 133.084C494.279 133.084 503.273 135.763 510.652 141.122C518.031 146.481 522.93 153.709 525.356 162.804H505.194C503.472 158.862 500.747 155.83 497.004 153.709C493.262 151.588 488.814 150.524 483.663 150.524C479.215 150.524 475.12 151.481 471.384 153.403C467.648 155.324 464.664 158.05 462.437 161.594C460.316 165.032 459.252 168.921 459.252 173.27C459.252 177.618 460.316 181.508 462.437 184.945C464.664 188.383 467.642 191.062 471.384 192.984C475.127 194.905 479.215 195.863 483.663 195.863C488.921 195.863 493.368 194.799 497.004 192.678C500.747 190.557 503.472 187.372 505.194 183.123H525.356C523.03 192.425 518.13 199.805 510.652 205.264C503.273 210.723 494.279 213.456 483.663 213.456Z" fill="#FF0000"></path><path d="M387.855 197.837C395.135 197.837 400.891 196.268 405.139 193.137C409.387 189.899 411.508 185.504 411.508 179.945V178.123H385.429C380.882 178.123 377.492 179.034 375.271 180.856C373.044 182.572 371.934 184.952 371.934 187.984C371.934 191.016 373.251 193.29 375.876 195.111C378.502 196.933 382.497 197.844 387.855 197.844V197.837ZM383.76 213.456C373.656 213.456 365.872 211.228 360.414 206.78C355.056 202.332 352.377 196.368 352.377 188.888C352.377 181.408 355.003 175.391 360.261 170.843C365.519 166.189 373.297 163.868 383.608 163.868H411.508V161.9C411.508 157.957 409.892 154.826 406.655 152.499C403.524 150.172 399.123 149.008 393.466 149.008C387.809 149.008 383.814 149.766 380.882 151.282C378.05 152.798 376.082 154.972 374.972 157.804H355.568C356.073 153.257 357.788 149.108 360.72 145.371C363.651 141.634 367.846 138.649 373.304 136.422C378.861 134.194 385.482 133.084 393.167 133.084C400.851 133.084 407.519 134.301 413.183 136.721C418.946 139.148 423.34 142.585 426.372 147.033C429.503 151.481 431.072 156.641 431.072 162.499V211.634H414.094L411.973 203.748H411.062C408.736 206.375 405.146 208.648 400.3 210.57C395.447 212.491 389.936 213.449 383.774 213.449H383.76V213.456Z" fill="#FF0000"></path><path d="M263.604 211.64V105.491H283.009V142.04H283.92C286.446 139.613 289.783 137.539 293.924 135.823C298.172 134.001 302.819 133.091 307.871 133.091C314.645 133.091 320.708 134.507 326.066 137.339C331.523 140.172 335.818 144.367 338.955 149.926C342.086 155.484 343.655 162.159 343.655 169.939V211.64H324.098V172.213C324.098 165.943 322.177 160.989 318.334 157.352C314.492 153.715 309.746 151.894 304.082 151.894C298.418 151.894 293.213 153.762 289.072 157.505C285.03 161.249 283.009 166.149 283.009 172.213V211.64H263.604Z" fill="#FF0000"></path><path d="M533.993 61.8678C533.281 57.2202 530.656 53.2774 526.109 50.0394C521.661 46.8014 516.456 45.1858 510.493 45.1858C504.225 45.1858 498.82 46.7549 494.273 49.8865C489.826 52.9184 486.894 56.9144 485.478 61.8678H533.993ZM509.735 109.327C501.752 109.327 494.473 107.559 487.905 104.022C481.337 100.484 476.132 95.684 472.289 89.6136C468.547 83.45 466.679 76.6216 466.679 69.1417C466.679 61.6617 468.6 54.7335 472.442 48.6698C476.285 42.4996 481.536 37.6991 488.21 34.2616C494.885 30.7244 502.31 28.9558 510.5 28.9558C518.69 28.9558 525.863 30.6247 532.331 33.9624C538.799 37.2004 543.851 41.7483 547.494 47.6126C551.237 53.4769 553.105 60.046 553.105 67.3265C553.105 71.0632 552.799 73.8491 552.194 75.6642H485.784C486.894 80.8171 489.673 85.0125 494.12 88.2505C498.667 91.4819 503.773 93.1042 509.436 93.1042C518.736 93.1042 525.457 90.4247 529.599 85.0657H550.372C547.341 91.9407 542.488 97.7052 535.821 102.353C529.147 107 520.458 109.327 509.742 109.327H509.735Z" fill="#FF0000"></path><path d="M439.243 107.512H411.495L380.411 30.7776H402.242L423.621 85.3716H427.111L448.642 30.7776H470.473L439.243 107.512Z" fill="#FF0000"></path><path d="M376.541 17.8921H356.073V0H376.541V17.8921ZM375.936 107.512H356.532V30.7776H375.936V107.512Z" fill="#FF0000"></path><path d="M325.24 107.512C318.772 107.512 313.767 105.897 310.23 102.659C306.693 99.3209 304.925 94.7199 304.925 88.8556V48.6698H290.979V30.7776H304.925V7.72598H324.483V30.7776H344.951V48.6698H324.483V83.5498C324.483 86.8875 326.351 88.5564 330.093 88.5564H344.951V107.512H325.24Z" fill="#FF0000"></path><path d="M283.621 0H263.153V17.8921H283.621V0Z" fill="#FF0000"></path><path d="M219.21 109.327C206.779 109.327 197.379 107 191.011 102.353C184.642 97.5988 181.458 91.5351 181.458 84.1548H200.71C200.71 86.9872 202.325 89.3077 205.562 91.1295C208.899 92.8515 213.446 93.7093 219.21 93.7093C224.973 93.7093 229.115 93.0045 231.947 91.5883C234.779 90.1721 236.195 88.3037 236.195 85.9766C236.195 83.45 235.237 81.5817 233.316 80.365C231.395 79.1482 228.211 78.1908 223.764 77.486L210.874 75.5179C201.574 74.002 194.547 71.4222 189.801 67.7853C185.048 64.042 182.674 58.9423 182.674 52.4663C182.674 45.5913 185.706 39.9797 191.768 35.6313C197.931 31.1832 206.626 28.9558 217.847 28.9558C225.226 28.9558 231.648 30.0662 237.105 32.2936C242.663 34.4146 246.911 37.3999 249.842 41.243C252.774 44.9863 254.236 49.1285 254.236 53.6764H234.985C234.785 50.9437 233.117 48.7761 229.979 47.1538C226.948 45.4384 222.906 44.574 217.847 44.574C212.788 44.574 208.753 45.2788 206.021 46.695C203.289 48.0115 201.926 49.8799 201.926 52.3067C201.926 54.5341 202.883 56.2495 204.805 57.4662C206.726 58.6763 209.657 59.5407 213.599 60.046L226.941 62.0207C236.341 63.5366 243.414 66.2161 248.167 70.0592C252.92 73.8025 255.293 78.9554 255.293 85.5245C255.293 92.4992 252.209 98.2105 246.046 102.659C239.884 107.107 230.936 109.334 219.21 109.334V109.327Z" fill="#FF0000"></path><path d="M134.586 91.7412C139.133 91.7412 143.281 90.8303 147.017 89.0085C150.753 87.087 153.692 84.4075 155.812 80.97C158.039 77.5325 159.149 73.5898 159.149 69.1417C159.149 64.6936 158.039 60.7508 155.812 57.3133C153.692 53.8758 150.707 51.1963 146.864 49.2748C143.128 47.3533 139.034 46.3958 134.586 46.3958C130.139 46.3958 126.044 47.3533 122.308 49.2748C118.565 51.1963 115.587 53.8758 113.36 57.3133C111.24 60.7508 110.176 64.6936 110.176 69.1417C110.176 73.5898 111.24 77.5325 113.36 80.97C115.587 84.4075 118.565 87.087 122.308 89.0085C126.044 90.8303 130.139 91.7412 134.586 91.7412ZM134.586 109.327C126.396 109.327 118.971 107.605 112.297 104.175C105.623 100.637 100.371 95.8369 96.5286 89.7665C92.786 83.603 90.918 76.728 90.918 69.1417C90.918 61.5553 92.786 54.7335 96.5286 48.6698C100.371 42.4996 105.623 37.6991 112.297 34.2616C118.971 30.7244 126.396 28.9558 134.586 28.9558C142.776 28.9558 150.202 30.7244 156.876 34.2616C163.55 37.6991 168.755 42.4996 172.491 48.6698C176.333 54.7335 178.255 61.5619 178.255 69.1417C178.255 76.7214 176.333 83.5963 172.491 89.7665C168.748 95.8302 163.543 100.637 156.876 104.175C150.202 107.612 142.776 109.327 134.586 109.327Z" fill="#FF0000"></path><path d="M42.9039 91.7412C49.5781 91.7412 55.1355 89.6668 59.5828 85.5245C64.03 81.2759 66.257 75.8172 66.257 69.1483C66.257 64.7002 65.1934 60.7575 63.0728 57.32C61.0519 53.8825 58.2732 51.203 54.7366 49.2815C51.2001 47.36 47.258 46.4025 42.9105 46.4025C38.5629 46.4025 34.5744 47.36 30.9315 49.2815C27.3949 51.203 24.563 53.8825 22.4424 57.32C20.4215 60.7575 19.4111 64.7002 19.4111 69.1483C19.4111 73.5964 20.4215 77.5392 22.4424 80.9767C24.563 84.4142 27.3949 87.0937 30.9315 89.0152C34.5677 90.837 38.5629 91.7479 42.9105 91.7479H42.9039V91.7412ZM0 137.838V30.7777H16.9781L18.7995 39.5741H19.7102C22.3361 36.3428 25.979 33.763 30.6257 31.8415C35.2724 29.92 40.4775 28.9625 46.241 28.9625C53.1146 28.9625 59.5828 30.6846 65.6454 34.122C71.7081 37.4598 76.5608 42.2071 80.2038 48.3772C83.9464 54.441 85.8144 61.3691 85.8144 69.155C85.8144 76.9408 83.9464 83.9155 80.2038 90.079C76.5675 96.1428 71.7147 100.897 65.6454 104.334C59.5828 107.672 53.1146 109.341 46.241 109.341C40.5838 109.341 35.525 108.43 31.0777 106.608C26.7301 104.687 23.1404 102.26 20.3152 99.3276H19.4045V137.845H0V137.838Z" fill="#FF0000"></path><path d="M462.796 336.792V232.046H537.635V247.032H477.707V291.985H537.635V306.899H477.707V336.792H462.796ZM537.635 291.979V247.026H552.546V291.979H537.635Z" fill="#423AFF"></path><path d="M425.329 247.026V232.039H440.313V247.026H425.329ZM365.48 306.892V232.039H410.352V247.026H380.384V306.892H365.474H365.48ZM440.313 306.892V247.026H455.223V306.892H440.313ZM410.352 306.892V247.026H425.336V306.892H410.352Z" fill="#423AFF"></path><path d="M283.07 247.026V232.039H342.998V247.026H283.07ZM283.07 306.892V291.979H342.998V276.992H283.07V262.006H342.998V247.019H357.909V306.886H283.07V306.892ZM268.159 291.979V276.992H283.07V291.979H268.159Z" fill="#423AFF"></path><path d="M185.747 247.026V232.039H245.675V247.026H185.747ZM245.675 262.012V247.026H260.586V262.012H245.675ZM170.843 291.979V247.026H185.753V291.979H170.843ZM245.675 291.979V276.992H260.586V291.979H245.675ZM185.747 306.892V291.979H245.675V306.892H185.747Z" fill="#423AFF"></path><path fill-rule="evenodd" clip-rule="evenodd" d="M535.64 246.361H479.7V287.325H535.64V246.361ZM537.634 244.366H477.706V289.319H537.634V244.366ZM477.706 304.233H537.634V289.319H552.545V244.366H537.634V229.38H462.795V334.126H477.706V304.233ZM554.532 242.372V291.314H539.622V306.227H479.693V336.121H460.794V227.385H539.622V242.372H554.532Z" fill="#423AFF"></path><path fill-rule="evenodd" clip-rule="evenodd" d="M425.327 244.366H440.311V304.233H455.222V244.366H440.311V229.38H425.327V244.366H410.343V229.38H365.472V304.233H380.382V244.366H410.35V304.233H425.334V244.366H425.327ZM408.356 306.227V246.361H382.377V306.227H363.478V227.385H412.338V242.372H423.333V227.385H442.305V242.372H457.216V306.227H438.317V246.361H427.321V306.227H408.349H408.356Z" fill="#423AFF"></path><path fill-rule="evenodd" clip-rule="evenodd" d="M285.063 276.334V287.331H341.003V276.334H285.063ZM283.069 274.339V289.326H342.997V274.339H283.069ZM283.069 289.319V304.233H357.908V244.366H342.997V229.38H283.069V244.366H342.997V259.353H283.069V274.339H268.158V289.326H283.069V289.319ZM266.164 291.314V272.338H281.075V257.352H341.003V246.354H281.075V227.378H344.992V242.365H359.902V306.221H281.075V291.307H266.164V291.314Z" fill="#423AFF"></path><path fill-rule="evenodd" clip-rule="evenodd" d="M245.676 289.319H260.587V274.333H245.676V289.319H185.748V244.366H245.676V259.353H260.587V244.366H245.676V229.38H185.748V244.366H170.837V289.319H185.748V304.233H245.676V289.319ZM183.753 306.227V291.314H168.843V242.372H183.753V227.385H247.67V242.372H262.581V261.347H243.682V246.361H187.742V287.325H243.682V272.338H262.581V291.314H247.67V306.227H183.753Z" fill="#423AFF"></path><path d="M283.009 30.7776H263.604V107.512H283.009V30.7776Z" fill="#FF0000"></path></svg> 